<?xml version="1.0" encoding="UTF-8" standalone="no"?>
<!-- Created with Inkscape (http://www.inkscape.org/) -->

<svg
   width="512"
   height="512"
   viewBox="0 0 135.46666 135.46667"
   version="1.1"
   id="svg1"
   xmlns:xlink="http://www.w3.org/1999/xlink"
   xmlns="http://www.w3.org/2000/svg"
   xmlns:svg="http://www.w3.org/2000/svg">
  <defs
     id="defs1">
    <linearGradient
       xlink:href="#linearGradient4"
       id="linearGradient5"
       x1="-69.434273"
       y1="251.4003"
       x2="402.62039"
       y2="251.40028"
       gradientUnits="userSpaceOnUse"
       gradientTransform="matrix(1.5377144,0,0,1.5377144,-188.54228,-310.70351)" />
    <linearGradient
       id="linearGradient4">
      <stop
         style="stop-color:#00d9ff;stop-opacity:0.99463326;"
         offset="0"
         id="stop4" />
      <stop
         style="stop-color:#6366f1;stop-opacity:1;"
         offset="1"
         id="stop5" />
    </linearGradient>
  </defs>
  <g
     id="layer1">
    <rect
       style="fill:#17172a;fill-opacity:1;stroke-width:0.318689"
       id="rect1"
       width="165.13187"
       height="145.62474"
       x="-9.7484388"
       y="-5.6369023"
       rx="7.749867"
       ry="11.405128" />
    <path
       d="m 15.209866,95.57434 q -4.901459,0 -7.5684291,-2.811131 -2.6669703,-2.81113 -2.6669703,-7.92883 0,-6.487225 2.7390506,-11.749085 2.7750908,-5.297901 7.7486298,-9.046075 4.973539,-3.748174 11.640965,-5.766422 6.667425,-2.018248 14.488135,-2.018248 h 0.720803 l -4.757298,27.138224 q -0.504562,2.883211 0.432481,4.180656 0.973084,1.297445 4.144616,1.297445 h 1.477646 l -1.081204,6.307025 h -2.55885 q -2.775091,0 -4.649178,-0.540602 -1.838047,-0.576643 -2.883211,-1.765967 -1.009124,-1.225365 -1.297445,-3.207573 -0.288321,-1.982207 0.07208,-4.829378 l 2.090328,0.937044 h -4.180656 l 1.910128,-2.090329 q -1.982208,5.658302 -6.126824,8.793794 -4.144616,3.099452 -9.694797,3.099452 z m 2.342609,-6.847626 q 5.18978,0 9.046075,-4.685218 3.856295,-4.685218 5.40602,-13.262771 l 1.874088,-10.45164 2.919251,2.77509 q -5.045619,0.216241 -9.442516,1.874088 -4.360857,1.657846 -7.67655,4.468977 -3.279652,2.77509 -5.15374,6.487225 -1.838047,3.676094 -1.838047,8.00091 0,2.306569 1.261405,3.567974 1.297445,1.225365 3.604014,1.225365 z M 72.297444,50.560207 q -2.198448,0 -3.784214,-1.549726 -1.549726,-1.585766 -1.549726,-3.784214 0,-2.234489 1.549726,-3.784215 1.585766,-1.549726 3.784214,-1.549726 2.234489,0 3.784215,1.549726 1.549726,1.549726 1.549726,3.784215 0,2.198448 -1.549726,3.784214 -1.549726,1.549726 -3.784215,1.549726 z m 8.469433,36.148259 2.486769,5.802462 q -2.198448,1.261405 -4.649178,2.162409 -2.450729,0.864963 -5.622261,0.864963 -6.523265,0 -9.694797,-3.063412 -3.171533,-3.063412 -2.811131,-8.973994 0.180201,-2.703011 1.045164,-5.26186 0.901003,-2.55885 1.910127,-4.97354 1.045164,-2.414689 1.585766,-4.649177 0.756843,-2.955292 -0.648722,-4.468978 -1.369525,-1.513685 -4.793339,-1.513685 -3.423813,0 -6.595345,0.828923 l -0.756843,-6.559305 q 2.126368,-0.612683 4.252736,-0.792883 2.126369,-0.216241 4.252737,-0.216241 7.460308,0 10.48768,3.423813 3.027372,3.387773 1.405566,10.019158 -0.612683,2.55885 -1.621807,4.793339 -0.973083,2.198448 -1.802007,4.360857 -0.828923,2.162408 -1.009124,4.685218 -0.396441,5.514141 6.198904,5.514141 1.802007,0 3.135492,-0.432482 1.369526,-0.468522 3.243613,-1.549726 z m 22.344883,-30.093516 -0.46852,9.838958 -5.009579,28.363589 h -7.74863 L 96.624537,56.61495 Z m 1.11725,38.202547 5.26186,-29.841234 q 0.5406,-2.955292 -1.87409,-2.955292 -2.23449,0 -3.96442,3.892335 -1.72992,3.892335 -2.84717,10.992242 l 0.86497,-14.488135 h 1.83804 q 0.90101,-3.531934 2.73905,-5.009579 1.87409,-1.513686 4.50502,-1.513686 3.35173,0 4.68522,2.414689 1.36952,2.414689 0.43248,7.676549 l -5.15374,28.832111 z m 25.91286,-28.832111 -5.08166,28.832111 h -7.74863 l 5.26186,-29.841234 q 0.25228,-1.405566 -0.1802,-2.162409 -0.43249,-0.792883 -1.58577,-0.792883 -2.37865,0 -4.10858,3.892335 -1.69388,3.892335 -2.77509,10.992242 l 0.50457,-14.488135 h 2.41468 q 0.97309,-3.567974 2.99134,-5.04562 2.05428,-1.477645 4.93749,-1.477645 7.13595,0 5.36999,10.091238 z"
       id="text2"
       style="font-style:italic;font-size:73.8102px;font-family:'Cascadia Code';-inkscape-font-specification:'Cascadia Code Italic';text-align:center;text-anchor:middle;fill:url(#linearGradient5);stroke-width:3.336"
       aria-label="aim" />
  </g>
</svg>
