<?xml version="1.0" encoding="UTF-8" standalone="no"?>
<svg
   width="32"
   height="32"
   viewBox="0 0 32 32"
   version="1.1"
   id="svg2"
   sodipodi:docname="favicon.svg"
   inkscape:version="1.4 (e7c3feb1, 2024-10-09)"
   xmlns:inkscape="http://www.inkscape.org/namespaces/inkscape"
   xmlns:sodipodi="http://sodipodi.sourceforge.net/DTD/sodipodi-0.dtd"
   xmlns="http://www.w3.org/2000/svg"
   xmlns:svg="http://www.w3.org/2000/svg">
  <sodipodi:namedview
     id="namedview2"
     pagecolor="#ffffff"
     bordercolor="#000000"
     borderopacity="0.25"
     inkscape:showpageshadow="2"
     inkscape:pageopacity="0.0"
     inkscape:pagecheckerboard="0"
     inkscape:deskcolor="#d1d1d1"
     inkscape:zoom="17.357238"
     inkscape:cx="22.036917"
     inkscape:cy="6.0493497"
     inkscape:window-width="2048"
     inkscape:window-height="1227"
     inkscape:window-x="0"
     inkscape:window-y="25"
     inkscape:window-maximized="1"
     inkscape:current-layer="svg2" />
  <defs
     id="defs2">
    <linearGradient
       id="bgGradient"
       x1="0%"
       y1="0%"
       x2="100%"
       y2="100%">
      <stop
         offset="0%"
         style="stop-color:#00D9FF;stop-opacity:1"
         id="stop1" />
      <stop
         offset="100%"
         style="stop-color:#7C3AED;stop-opacity:1"
         id="stop2" />
    </linearGradient>
  </defs>
  <!-- Background -->
  <rect
     width="32"
     height="32"
     rx="4"
     ry="4"
     fill="url(#bgGradient)"
     id="rect2" />
  <path
     d="m 8.979786,19.72119 q -0.6551222,0 -1.0115858,-0.375732 -0.3564636,-0.375732 -0.3564636,-1.059756 0,-0.867074 0.3660978,-1.570367 0.3709147,-0.70811 1.0356711,-1.209086 0.6647564,-0.500976 1.5559155,-0.770732 0.891159,-0.269756 1.936464,-0.269756 h 0.09634 l -0.635853,3.627258 q -0.06744,0.385366 0.0578,0.55878 0.130061,0.173415 0.553964,0.173415 h 0.1975 l -0.144512,0.842988 h -0.342012 q -0.370915,0 -0.621403,-0.07226 -0.245671,-0.07707 -0.385366,-0.236037 -0.134878,-0.16378 -0.173415,-0.428719 -0.03854,-0.26494 0.0096,-0.645488 l 0.279391,0.125244 h -0.558781 l 0.255305,-0.279391 q -0.264939,0.756281 -0.818903,1.175366 -0.5539635,0.414269 -1.295793,0.414269 z m 0.3131099,-0.915244 q 0.6936588,0 1.2090861,-0.62622 0.515427,-0.62622 0.722561,-1.772684 l 0.250488,-1.396952 0.390183,0.370915 q -0.674391,0.0289 -1.262074,0.250488 -0.582866,0.221586 -1.0260367,0.597317 -0.4383538,0.370915 -0.6888418,0.867074 -0.2456708,0.491342 -0.2456708,1.069391 0,0.308292 0.1685976,0.47689 0.1734148,0.163781 0.4817076,0.163781 z m 7.3171371,-5.101283 q -0.293842,0 -0.505793,-0.207134 -0.207134,-0.211951 -0.207134,-0.505793 0,-0.298659 0.207134,-0.505793 0.211951,-0.207134 0.505793,-0.207134 0.298658,0 0.505793,0.207134 0.207134,0.207134 0.207134,0.505793 0,0.293842 -0.207134,0.505793 -0.207135,0.207134 -0.505793,0.207134 z m 1.132012,4.831526 0.332379,0.77555 q -0.293842,0.168597 -0.621403,0.289024 -0.327561,0.11561 -0.751464,0.11561 -0.87189,0 -1.295793,-0.409452 -0.423903,-0.409451 -0.375732,-1.199451 0.02408,-0.361281 0.139695,-0.703293 0.120427,-0.342013 0.255305,-0.664757 0.139695,-0.322744 0.211952,-0.621402 0.101158,-0.395 -0.08671,-0.597318 -0.183049,-0.202317 -0.640671,-0.202317 -0.457622,0 -0.881525,0.110793 l -0.101158,-0.876708 q 0.284207,-0.08189 0.568415,-0.105975 0.284207,-0.0289 0.568415,-0.0289 0.997134,0 1.401768,0.457622 0.404635,0.452805 0.187866,1.339147 -0.08189,0.342013 -0.216768,0.640671 -0.130061,0.293842 -0.240854,0.582866 -0.110792,0.289025 -0.134878,0.62622 -0.05299,0.737013 0.828537,0.737013 0.240854,0 0.419086,-0.0578 0.183048,-0.06262 0.433536,-0.207135 z m 2.986587,-4.022257 -0.06262,1.315061 -0.669574,3.791038 h -1.035671 l 0.900793,-5.106099 z m 0.149329,5.106099 0.703293,-3.988538 q 0.07226,-0.395 -0.250488,-0.395 -0.298659,0 -0.529878,0.520244 -0.23122,0.520244 -0.380549,1.469208 l 0.11561,-1.936464 h 0.245671 q 0.120426,-0.472074 0.366097,-0.669574 0.250488,-0.202317 0.602135,-0.202317 0.447988,0 0.626219,0.322744 0.183049,0.322744 0.05781,1.026037 l -0.688841,3.85366 z m 3.463477,-3.85366 -0.679208,3.85366 h -1.035671 l 0.703293,-3.988538 q 0.03372,-0.187866 -0.02408,-0.289024 -0.0578,-0.105976 -0.211951,-0.105976 -0.317927,0 -0.549147,0.520244 -0.226402,0.520244 -0.370915,1.469208 l 0.06744,-1.936464 h 0.322744 q 0.130061,-0.476891 0.399818,-0.674391 0.274573,-0.1975 0.659939,-0.1975 0.953781,0 0.717744,1.348781 z"
     id="text2"
     style="font-style:italic;font-size:9.86537px;font-family:'Cascadia Code';-inkscape-font-specification:'Cascadia Code Italic';stroke-width:0.80259"
     aria-label="aim" />
</svg>
